<svg width="141" height="141" viewBox="0 0 141 141" fill="none" xmlns="http://www.w3.org/2000/svg">
<path fill-rule="evenodd" clip-rule="evenodd" d="M23.5002 70.501C23.5002 58.0357 28.452 46.081 37.2663 37.2667C46.0806 28.4524 58.0353 23.5006 70.5006 23.5006C82.9658 23.5006 94.9206 28.4524 103.735 37.2667C112.549 46.081 117.501 58.0357 117.501 70.501C117.501 82.9662 112.549 94.921 103.735 103.735C94.9206 112.55 82.9658 117.501 70.5006 117.501C58.0353 117.501 46.0806 112.55 37.2663 103.735C28.452 94.921 23.5002 82.9662 23.5002 70.501ZM70.5006 11.7505C38.0527 11.7505 11.7501 38.0531 11.7501 70.501C11.7501 102.949 38.0527 129.251 70.5006 129.251C102.948 129.251 129.251 102.949 129.251 70.501C129.251 38.0531 102.948 11.7505 70.5006 11.7505ZM76.3756 35.2507C76.3756 33.6925 75.7566 32.1982 74.6548 31.0964C73.5531 29.9946 72.0587 29.3756 70.5006 29.3756C68.9424 29.3756 67.4481 29.9946 66.3463 31.0964C65.2445 32.1982 64.6255 33.6925 64.6255 35.2507V70.501C64.6258 72.059 65.245 73.5531 66.3469 74.6546L83.972 92.2798C85.0801 93.3499 86.5641 93.9421 88.1046 93.9287C89.645 93.9153 91.1185 93.2975 92.2078 92.2082C93.2971 91.1189 93.9149 89.6454 93.9283 88.1049C93.9417 86.5645 93.3495 85.0805 92.2794 83.9724L76.3756 68.0687V35.2507Z" fill="black"/>
</svg>
