<svg width="56" height="51" viewBox="0 0 56 51" fill="none" xmlns="http://www.w3.org/2000/svg">
<path fill-rule="evenodd" clip-rule="evenodd" d="M31.7725 2.519C29.924 -0.839665 25.0962 -0.839665 23.2501 2.519L0.606667 43.6814C-1.17125 46.9258 1.17093 50.89 4.87269 50.89H50.1548C53.8541 50.89 56.1987 46.9258 54.4159 43.6814L31.7725 2.519ZM27.5113 4.86349L50.1548 46.0259H4.86782L27.5113 4.86349V4.86349ZM27.5113 16.8413C28.1563 16.8413 28.775 17.0976 29.2311 17.5537C29.6872 18.0098 29.9435 18.6284 29.9435 19.2734V31.4336C29.9435 32.0787 29.6872 32.6973 29.2311 33.1534C28.775 33.6095 28.1563 33.8657 27.5113 33.8657C26.8662 33.8657 26.2476 33.6095 25.7915 33.1534C25.3354 32.6973 25.0791 32.0787 25.0791 31.4336V19.2734C25.0791 18.6284 25.3354 18.0098 25.7915 17.5537C26.2476 17.0976 26.8662 16.8413 27.5113 16.8413V16.8413ZM30.5515 40.5538C30.5515 41.3601 30.2312 42.1333 29.6611 42.7035C29.0909 43.2736 28.3176 43.5939 27.5113 43.5939C26.705 43.5939 25.9317 43.2736 25.3615 42.7035C24.7914 42.1333 24.4711 41.3601 24.4711 40.5538C24.4711 39.7475 24.7914 38.9743 25.3615 38.4042C25.9317 37.834 26.705 37.5138 27.5113 37.5138C28.3176 37.5138 29.0909 37.834 29.6611 38.4042C30.2312 38.9743 30.5515 39.7475 30.5515 40.5538V40.5538Z" fill="black"/>
</svg>
