<svg width="35" height="35" viewBox="0 0 35 35" fill="none" xmlns="http://www.w3.org/2000/svg">
<path fill-rule="evenodd" clip-rule="evenodd" d="M15.7343 3.98024C12.2722 4.42077 9.10772 6.16304 6.88407 8.85296C4.66043 11.5429 3.54447 14.9786 3.76302 18.4617C3.98156 21.9449 5.51821 25.2142 8.06064 27.605C10.6031 29.9959 13.9605 31.329 17.4505 31.3333C20.7947 31.3332 24.024 30.1127 26.5323 27.9009C29.0406 25.689 30.6554 22.6377 31.0738 19.3198H17.4505C16.9953 19.3198 16.5588 19.139 16.2369 18.8171C15.9151 18.4953 15.7343 18.0587 15.7343 17.6036V3.98024ZM19.1667 3.98024V15.8874H31.0738C30.6918 12.8627 29.3145 10.0511 27.1587 7.89534C25.003 5.7396 22.1914 4.36225 19.1667 3.98024ZM0.28833 17.6036C0.28833 8.12491 7.97183 0.441406 17.4505 0.441406C26.9292 0.441406 34.6127 8.12491 34.6127 17.6036C34.6127 27.0822 26.9292 34.7657 17.4505 34.7657C7.97183 34.7657 0.28833 27.0822 0.28833 17.6036Z" fill="black"/>
</svg>
