<svg width="41" height="28" viewBox="0 0 41 28" fill="none" xmlns="http://www.w3.org/2000/svg">
<path fill-rule="evenodd" clip-rule="evenodd" d="M26.7012 4.17122C25.3715 4.17122 24.0962 4.69944 23.156 5.63968C22.2158 6.57992 21.6875 7.85516 21.6875 9.18486C21.6875 10.5146 22.2158 11.7898 23.156 12.73C24.0962 13.6703 25.3715 14.1985 26.7012 14.1985C28.0309 14.1985 29.3061 13.6703 30.2464 12.73C31.1866 11.7898 31.7148 10.5146 31.7148 9.18486C31.7148 7.85516 31.1866 6.57992 30.2464 5.63968C29.3061 4.69944 28.0309 4.17122 26.7012 4.17122ZM18.3451 9.18486C18.3451 7.82275 18.6781 6.48129 19.3151 5.2773C19.9521 4.0733 20.8737 3.04327 21.9998 2.2769C23.1259 1.51054 24.4222 1.03107 25.7759 0.880243C27.1297 0.729419 28.4998 0.911816 29.7669 1.41155C31.034 1.91129 32.1598 2.71321 33.0461 3.74749C33.9325 4.78176 34.5525 6.01704 34.8523 7.34575C35.1521 8.67445 35.1226 10.0563 34.7662 11.371C34.4099 12.6857 33.7376 13.8933 32.8078 14.8887C35.643 15.811 38.094 17.644 39.7801 20.1029C40.0153 20.4692 40.0983 20.9128 40.0114 21.3393C39.9246 21.7658 39.6747 22.1416 39.3151 22.3868C38.9554 22.632 38.5143 22.7271 38.0855 22.652C37.6567 22.5769 37.2742 22.3375 37.0193 21.9847C35.3882 19.5915 32.4134 17.5409 28.3724 17.5409C21.965 17.5409 18.3451 22.6782 18.3451 25.897C18.3451 26.3402 18.169 26.7653 17.8556 27.0787C17.5422 27.3921 17.1171 27.5682 16.6739 27.5682C16.2307 27.5682 15.8056 27.3921 15.4922 27.0787C15.1788 26.7653 15.0027 26.3402 15.0027 25.897C15.0027 24.7405 15.2667 23.5072 15.7714 22.2922C15.6402 22.2072 15.5215 22.1043 15.4188 21.9864C14.0467 20.4255 11.9176 19.2121 9.15343 19.2121C6.38924 19.2121 4.26011 20.4255 2.88804 21.9864C2.59095 22.3019 2.18287 22.4898 1.74993 22.5102C1.31699 22.5306 0.893052 22.382 0.567582 22.0958C0.242112 21.8096 0.0405695 21.4081 0.00548731 20.9761C-0.0295949 20.5441 0.104527 20.1154 0.37955 19.7804C1.36643 18.6572 2.56313 17.7375 3.90247 17.073C2.8324 16.0287 2.09792 14.6891 1.79284 13.2253C1.48776 11.7616 1.62593 10.2401 2.1897 8.85526C2.75347 7.47041 3.71725 6.28505 4.95793 5.45058C6.19862 4.6161 7.65989 4.1704 9.1551 4.1704C10.6503 4.1704 12.1116 4.6161 13.3523 5.45058C14.5929 6.28505 15.5567 7.47041 16.1205 8.85526C16.6843 10.2401 16.8224 11.7616 16.5174 13.2253C16.2123 14.6891 15.4778 16.0287 14.4077 17.073C15.5671 17.6484 16.6209 18.4157 17.5245 19.3425C18.6596 17.9142 20.0716 16.7302 21.6758 15.8614C20.6406 15.0834 19.8006 14.075 19.2225 12.9162C18.6444 11.7574 18.344 10.4799 18.3451 9.18486ZM4.97539 11.6917C4.97539 10.5836 5.41557 9.5209 6.19911 8.73737C6.98264 7.95383 8.04534 7.51365 9.15343 7.51365C10.2615 7.51365 11.3242 7.95383 12.1077 8.73737C12.8913 9.5209 13.3315 10.5836 13.3315 11.6917C13.3315 12.7998 12.8913 13.8625 12.1077 14.646C11.3242 15.4295 10.2615 15.8697 9.15343 15.8697C8.04534 15.8697 6.98264 15.4295 6.19911 14.646C5.41557 13.8625 4.97539 12.7998 4.97539 11.6917Z" fill="black"/>
</svg>
