<svg width="38" height="38" viewBox="0 0 38 38" fill="none" xmlns="http://www.w3.org/2000/svg">
<path d="M32.8465 0.360972H4.65489H4.31567H3.97644V0.375304C2.06529 0.537527 0.544067 2.05803 0.381984 3.97199H0.367686V4.31121V4.65044V25.6212V25.9605V26.2997H0.381984C0.544068 28.2137 2.06529 29.7342 3.97644 29.8964V29.9107H4.31567H4.65489H13.1146L17.4635 36.4338L17.4676 36.44L32.8465 0.360972ZM32.8465 0.360972H33.1857H33.525V0.375304C35.4361 0.537527 36.9573 2.05803 37.1194 3.97199H37.1337V4.31121V4.65044V25.6212V25.9605C37.1337 25.9613 37.1337 25.9621 37.1337 25.9629V26.3021H37.1192C36.9561 28.2149 35.4353 29.7342 33.525 29.8964V29.9107H33.1857H32.8465H24.3868L20.0338 36.44C20.0338 36.44 20.0338 36.44 20.0338 36.44L19.8455 36.7224L19.8141 36.7015C19.714 36.7969 19.6012 36.8787 19.4784 36.9444C19.2546 37.0643 19.0046 37.127 18.7507 37.127C18.4968 37.127 18.2468 37.0643 18.023 36.9444C17.9002 36.8787 17.7874 36.7969 17.6873 36.7015L17.6559 36.7224L17.469 36.4421L32.8465 0.360972ZM13.9387 26.8249H4.65489V26.8242L4.31593 26.8249H4.31567L4.31498 26.8249C4.31358 26.8249 4.31217 26.8249 4.31076 26.8249C4.19883 26.8246 4.08802 26.8024 3.98452 26.7597C3.87973 26.7164 3.7845 26.6528 3.70431 26.5725C3.62412 26.4923 3.56054 26.397 3.51723 26.292C3.47439 26.1883 3.45223 26.0771 3.45197 25.9648V25.9609V25.9605L3.45265 25.6212H3.45197V4.65044V4.31121C3.45197 3.83153 3.8368 3.44676 4.31567 3.44676H4.65489H32.8465H33.1857C33.6646 3.44676 34.0494 3.83153 34.0494 4.31121V4.65044V25.6212V25.9605C34.0494 26.4402 33.6646 26.8249 33.1857 26.8249H32.8465H23.5627H13.9387ZM23.5601 26.8249H23.2232V26.8625C23.0885 26.8928 22.958 26.9411 22.8353 27.0067C22.7124 27.0723 22.5995 27.1539 22.4993 27.2492L22.4676 27.228L22.2795 27.51L22.2793 27.5104L22.2791 27.5107L22.091 27.792L22.0914 27.7923L18.7507 32.8031L15.41 27.7923L15.4104 27.792L15.2223 27.5107L15.2221 27.5104L15.2219 27.51L15.0338 27.228L15.0021 27.2492C14.9019 27.1539 14.789 27.0723 14.6661 27.0067L14.5064 27.3059L14.6661 27.0067C14.5434 26.9411 14.4129 26.8928 14.2782 26.8625V26.8249H13.9413H23.5601ZM12.3969 19.959V20.2982H12.7361H24.7653H25.1045V19.959V17.5516V17.2124H24.7653H12.7361H12.3969V17.5516V19.959ZM9.99104 12.7369V13.0761H10.3303H27.1711H27.5104V12.7369V10.3296V9.99035H27.1711H10.3303H9.99104V10.3296V12.7369Z" fill="black" stroke="black" stroke-width="0.678446"/>
</svg>
