<svg width="32" height="38" viewBox="0 0 32 38" fill="none" xmlns="http://www.w3.org/2000/svg">
<path fill-rule="evenodd" clip-rule="evenodd" d="M8.70542 8.22655C8.90156 8.02754 9.16866 7.91464 9.44796 7.91269C9.72726 7.91075 9.9959 8.0199 10.1948 8.21616L15.8089 13.7573L21.3452 8.13839C21.4417 8.03702 21.5573 7.9559 21.6855 7.89975C21.8136 7.8436 21.9516 7.81356 22.0915 7.81137C22.2313 7.80917 22.3702 7.83488 22.5 7.88698C22.6298 7.93909 22.748 8.01655 22.8476 8.11484C22.9472 8.21314 23.0262 8.3303 23.0801 8.45949C23.1339 8.58868 23.1615 8.72731 23.1613 8.8673C23.1611 9.00729 23.133 9.14583 23.0787 9.27483C23.0244 9.40384 22.9449 9.52072 22.845 9.61867L17.3087 15.2376L22.9228 20.7787C23.1161 20.9762 23.2241 21.2417 23.2237 21.5182C23.2232 21.7946 23.1143 22.0598 22.9203 22.2566C22.7264 22.4534 22.463 22.5662 22.1868 22.5705C21.9107 22.5748 21.6438 22.4704 21.4438 22.2798L15.8297 16.7386L10.2934 22.3575C10.0961 22.551 9.8308 22.6591 9.5546 22.6586C9.27841 22.6581 9.01345 22.5491 8.81679 22.355C8.62014 22.1609 8.50752 21.8973 8.50319 21.6209C8.49886 21.3445 8.60317 21.0774 8.79366 20.8773L14.3299 15.2584L8.71581 9.71723C8.51697 9.52091 8.40417 9.25358 8.40222 8.97404C8.40027 8.6945 8.50933 8.42563 8.70542 8.22655Z" fill="black"/>
<path d="M24.3116 1.5603C24.6089 1.55933 24.9011 1.6412 25.1549 1.79735C25.4041 1.95063 25.6067 2.16963 25.74 2.43088C25.8863 2.70718 26.9674 4.83302 28 7.81959C29.047 10.8479 30.0742 14.8461 29.9728 18.7296C29.9709 19.1536 29.8863 20.6154 28.7805 22.4047C27.6578 24.2212 25.5367 26.287 21.5866 27.9527C21.5863 27.9528 21.5859 27.953 21.5856 27.9531L21.1626 28.1324L21.1515 28.1372L21.1402 28.1417C20.9216 28.2285 20.7017 28.3074 20.4626 28.3886L20.3375 28.4333L19.9719 28.5709L19.7896 28.6396H19.5948H19.5444C18.8707 28.8181 18.185 28.9476 17.4927 29.0271V33.6427H22.4206C22.6028 33.6085 22.79 33.6054 22.9741 33.6339C23.2288 33.6733 23.4708 33.7722 23.6804 33.923L24.3116 1.5603ZM24.3116 1.5603H24.3138V2.63062L24.3078 1.56031C24.3091 1.5603 24.3103 1.5603 24.3116 1.5603ZM24.3116 1.5603L7.46033 1.56029L7.45926 1.5603C7.16312 1.56059 6.87248 1.64276 6.61978 1.79821C6.36961 1.95211 6.16602 2.17209 6.03218 2.43472C5.91429 2.66203 4.82131 4.80459 3.77617 7.83045C2.72865 10.8632 1.69989 14.8657 1.80136 18.7466C1.80335 19.1544 1.88652 20.5699 2.94646 22.3175C4.02068 24.0886 6.04789 26.1176 9.8192 27.7864L10.2151 27.9909L10.2501 28.0091L10.2865 28.0246C10.7476 28.2213 11.2198 28.3912 11.7007 28.5335L11.7348 28.5465L11.9194 28.6171H12.0884C12.8046 28.8066 13.5339 28.9425 14.2701 29.0237V33.6427H9.2165C9.00615 33.6427 8.79776 33.6839 8.60316 33.764C8.60315 33.764 8.60313 33.764 8.60311 33.764L9.01054 34.7538C8.94525 34.7806 8.88592 34.82 8.83595 34.8697C8.78597 34.9194 8.74633 34.9783 8.71929 35.0432M24.3116 1.5603L7.73135 34.6314L8.71929 35.0432M8.71929 35.0432L7.73134 34.6314M8.71929 35.0432C8.69224 35.1081 8.67831 35.1776 8.67831 35.2479L7.73134 34.6314M7.73134 34.6314C7.64999 34.8266 7.60798 35.0361 7.60798 35.2479C7.60798 35.4596 7.64999 35.6691 7.73134 35.8643V34.6314ZM16.8416 28.014L16.4224 28.0421V33.6427L16.8416 28.014ZM16.8416 28.014C17.7077 27.9491 18.5654 27.8002 19.4022 27.5692H19.4815H19.5948M16.8416 28.014L19.5948 27.5692M19.5948 27.5692L19.9687 27.4285L19.5948 27.5692ZM12.117 27.5467L12.0433 27.5186L12.117 27.5467ZM12.117 27.5467H12.1963H12.2303C13.1097 27.7887 14.0111 27.9434 14.9212 28.0083M12.117 27.5467L15.3404 33.6427V28.0421M15.3404 28.0421L14.9212 28.0083M15.3404 28.0421H14.9188M15.3404 28.0421L15.2544 29.109L14.84 29.0756L14.9188 28.0421M14.9212 28.0083L14.9188 28.0421M14.9212 28.0083L14.9185 28.0421H14.9188M7.73135 35.8643C7.81273 36.0596 7.93183 36.2365 8.0815 36.3852C8.23113 36.5339 8.40843 36.6516 8.60311 36.7317C8.60313 36.7317 8.60315 36.7317 8.60316 36.7317L9.01054 35.742C9.07584 35.7688 9.14582 35.7826 9.2165 35.7826H9.24425C9.23502 35.7831 9.22576 35.7834 9.2165 35.7834H15.3404H15.3521H16.4107H16.4224H22.5461L22.214 36.8001C22.2819 36.8222 22.3509 36.8399 22.4206 36.853H22.5463L7.73135 35.8643ZM22.5461 34.7123H17.4927H22.5461ZM22.5486 34.7123H22.5463H22.5486ZM14.2701 34.7123H9.2165C9.22575 34.7123 9.235 34.7126 9.24423 34.7131H9.2165L14.2701 34.7123Z" stroke="black" stroke-width="2.14066"/>
</svg>
