<svg width="32" height="32" viewBox="0 0 32 32" fill="none" xmlns="http://www.w3.org/2000/svg">
<path d="M12.8889 9V5.5C12.8889 4.57174 13.2167 3.6815 13.8001 3.02513C14.3836 2.36875 15.1749 2 16 2H26.8889C27.714 2 28.5054 2.36875 29.0888 3.02513C29.6723 3.6815 30 4.57174 30 5.5V26.5C30 27.4283 29.6723 28.3185 29.0888 28.9749C28.5054 29.6313 27.714 30 26.8889 30H16C15.1749 30 14.3836 29.6313 13.8001 28.9749C13.2167 28.3185 12.8889 27.4283 12.8889 26.5V23" stroke="black" stroke-width="2.33333" stroke-linecap="round" stroke-linejoin="round"/>
<path d="M20.6667 16H2M2 16L6.66667 10.75M2 16L6.66667 21.25" stroke="black" stroke-width="2.33333" stroke-linecap="round" stroke-linejoin="round"/>
</svg>
