<svg width="30" height="30" viewBox="0 0 30 30" fill="none" xmlns="http://www.w3.org/2000/svg">
<path fill-rule="evenodd" clip-rule="evenodd" d="M8.33333 10.0002C8.33333 8.23208 9.03571 6.53639 10.286 5.28615C11.5362 4.0359 13.2319 3.33353 15 3.33353C16.7681 3.33353 18.4638 4.0359 19.714 5.28615C20.9643 6.53639 21.6667 8.23208 21.6667 10.0002C21.6667 11.7683 20.9643 13.464 19.714 14.7142C18.4638 15.9645 16.7681 16.6669 15 16.6669C13.2319 16.6669 11.5362 15.9645 10.286 14.7142C9.03571 13.464 8.33333 11.7683 8.33333 10.0002ZM21.3733 17.7052C22.9592 16.3933 24.1016 14.624 24.6447 12.6388C25.1878 10.6536 25.1052 8.54915 24.408 6.61267C23.7108 4.67618 22.4331 3.00197 20.7492 1.81852C19.0654 0.635059 17.0573 0 14.9992 0C12.941 0 10.933 0.635059 9.24909 1.81852C7.56521 3.00197 6.28751 4.67618 5.59034 6.61267C4.89317 8.54915 4.8105 10.6536 5.35361 12.6388C5.89672 14.624 7.03915 16.3933 8.625 17.7052C3.31 19.5769 0 23.7452 0 28.3335C0 28.7756 0.175595 29.1995 0.488155 29.512C0.800716 29.8246 1.22464 30.0002 1.66667 30.0002C2.10869 30.0002 2.53262 29.8246 2.84518 29.512C3.15774 29.1995 3.33333 28.7756 3.33333 28.3335C3.33333 24.5502 7.25833 20.0002 15 20.0002C22.7417 20.0002 26.6667 24.5502 26.6667 28.3335C26.6667 28.7756 26.8423 29.1995 27.1548 29.512C27.4674 29.8246 27.8913 30.0002 28.3333 30.0002C28.7754 30.0002 29.1993 29.8246 29.5118 29.512C29.8244 29.1995 30 28.7756 30 28.3335C30 23.7452 26.6933 19.5769 21.3733 17.7052Z" fill="black"/>
</svg>
