<svg width="10" height="10" viewBox="0 0 10 10" fill="none" xmlns="http://www.w3.org/2000/svg">
<path fill-rule="evenodd" clip-rule="evenodd" d="M4.99996 1.2498C4.5075 1.2498 4.01987 1.34679 3.5649 1.53523C3.10993 1.72368 2.69653 1.99989 2.34831 2.34809C2.00009 2.6963 1.72387 3.10967 1.53541 3.56462C1.34696 4.01957 1.24996 4.50718 1.24996 4.99962C1.24996 5.49205 1.34696 5.97966 1.53541 6.43461C1.72387 6.88956 2.00009 7.30293 2.34831 7.65114C2.69653 7.99934 3.10993 8.27555 3.5649 8.464C4.01987 8.65244 4.5075 8.74943 4.99996 8.74943C5.99452 8.74943 6.94835 8.35436 7.65161 7.65114C8.35487 6.94791 8.74996 5.99413 8.74996 4.99962C8.74996 4.0051 8.35487 3.05132 7.65161 2.34809C6.94835 1.64487 5.99452 1.2498 4.99996 1.2498ZM0.416626 4.99962C0.416626 2.46849 2.46871 0.416504 4.99996 0.416504C7.53121 0.416504 9.58329 2.46849 9.58329 4.99962C9.58329 7.53074 7.53121 9.58273 4.99996 9.58273C2.46871 9.58273 0.416626 7.53074 0.416626 4.99962ZM5.52079 3.02054C5.52079 3.15867 5.46592 3.29114 5.36824 3.38881C5.27057 3.48648 5.13809 3.54135 4.99996 3.54135C4.86183 3.54135 4.72935 3.48648 4.63167 3.38881C4.534 3.29114 4.47913 3.15867 4.47913 3.02054C4.47913 2.88242 4.534 2.74995 4.63167 2.65228C4.72935 2.55461 4.86183 2.49974 4.99996 2.49974C5.13809 2.49974 5.27057 2.55461 5.36824 2.65228C5.46592 2.74995 5.52079 2.88242 5.52079 3.02054ZM4.58329 4.16632C4.47279 4.16632 4.36681 4.21022 4.28867 4.28836C4.21053 4.36649 4.16663 4.47247 4.16663 4.58297C4.16663 4.69347 4.21053 4.79945 4.28867 4.87758C4.36681 4.95572 4.47279 4.99962 4.58329 4.99962V7.08285C4.58329 7.19335 4.62719 7.29933 4.70533 7.37746C4.78347 7.4556 4.88945 7.49949 4.99996 7.49949C5.11047 7.49949 5.21645 7.4556 5.29459 7.37746C5.37273 7.29933 5.41663 7.19335 5.41663 7.08285V4.58297C5.41663 4.47247 5.37273 4.36649 5.29459 4.28836C5.21645 4.21022 5.11047 4.16632 4.99996 4.16632H4.58329Z" fill="#6A6A6A"/>
</svg>
