<svg width="21" height="45" viewBox="0 0 21 45" fill="none" xmlns="http://www.w3.org/2000/svg">
<path fill-rule="evenodd" clip-rule="evenodd" d="M20.3168 0.824106C20.7543 1.35194 21 2.06774 21 2.8141C21 3.56046 20.7543 4.27626 20.3168 4.80409L5.63243 22.517L20.3168 40.2299C20.7419 40.7607 20.9771 41.4718 20.9717 42.2098C20.9664 42.9478 20.721 43.6537 20.2884 44.1756C19.8557 44.6975 19.2705 44.9935 18.6587 44.9999C18.0468 45.0063 17.4574 44.7226 17.0173 44.2099L0.683201 24.507C0.245748 23.9791 0 23.2633 0 22.517C0 21.7706 0.245748 21.0548 0.683201 20.527L17.0173 0.824106C17.4549 0.296432 18.0483 0 18.6671 0C19.2858 0 19.8792 0.296432 20.3168 0.824106Z" fill="black"/>
</svg>
