<svg width="21" height="45" viewBox="0 0 21 45" fill="none" xmlns="http://www.w3.org/2000/svg">
<path fill-rule="evenodd" clip-rule="evenodd" d="M0.683201 0.824106C1.12079 0.296432 1.7142 0 2.33295 0C2.95169 0 3.5451 0.296432 3.98269 0.824106L20.3168 20.527C20.7543 21.0548 21 21.7706 21 22.517C21 23.2633 20.7543 23.9791 20.3168 24.507L3.98269 44.2099C3.5426 44.7226 2.95317 45.0063 2.34134 44.9999C1.72952 44.9935 1.14426 44.6975 0.711626 44.1756C0.278986 43.6537 0.0335807 42.9478 0.0282641 42.2098C0.0229476 41.4718 0.258145 40.7607 0.683201 40.2299L15.3676 22.517L0.683201 4.80409C0.245748 4.27626 0 3.56046 0 2.8141C0 2.06774 0.245748 1.35194 0.683201 0.824106Z" fill="black"/>
</svg>
